<?xml version="1.0" encoding="UTF-8" standalone="no"?>
<svg
   viewBox="0 0 160 160"
   width="160"
   height="160"
   version="1.1"
   id="svg8"
   xmlns="http://www.w3.org/2000/svg"
   xmlns:svg="http://www.w3.org/2000/svg">
  <defs
     id="defs12" />
  <path
     d="m 75.4,98.7 c 0.3,-0.3 0.6,-0.6 0.8,-0.9 1.9,-2.1 3.9,-4.2 5.8,-6.3 0.1,-0.1 0.2,-0.2 0.2,-0.3 0.4,-0.5 0.4,-0.5 0,-0.9 -2.4,-2.4 -4.9,-4.8 -7.3,-7.3 -0.6,-0.6 -1.1,-1.2 -1.7,-1.8 0,0 -0.1,0 -0.1,0.1 v 6.8 c 0,0.9 -0.4,1.4 -1.3,1.6 -2.4,0.4 -4.8,0.8 -7.1,1.6 -1.2,0.4 -2.4,0.9 -3.6,1.4 -0.3,0.1 -0.6,0.3 -0.8,0.6 -0.7,0.7 -0.7,1.4 0,2.1 0.7,0.6 1.5,1 2.3,1.4 2.4,1.1 4.8,1.9 7.3,2.4 2.5,0.6 5,1 7.5,1.3 1.8,0.2 3.7,0.4 5.5,0.5 2.2,0.1 4.4,0.2 6.7,0.2 2.2,0 4.5,-0.2 6.7,-0.3 2.7,-0.2 5.4,-0.5 8,-1.1 3,-0.6 6,-1.4 8.9,-2.6 0.9,-0.4 1.7,-0.8 2.5,-1.3 0.3,-0.2 0.5,-0.4 0.8,-0.6 0.5,-0.6 0.6,-1.2 0,-1.8 -0.4,-0.3 -0.8,-0.6 -1.2,-0.8 -2.4,-1.1 -4.9,-1.8 -7.4,-2.3 -0.9,-0.2 -1.8,-0.3 -2.8,-0.5 -0.7,-0.1 -1.2,-0.7 -1.2,-1.5 v -7 c -3.2,3.2 -6.4,6.3 -9.6,9.5 2.4,2.6 4.8,5.2 7.3,7.9 -0.2,0 -0.4,0.1 -0.6,0.1 l -2.4,0.3 c -0.1,0 -0.3,-0.1 -0.4,-0.2 -2.1,-2.2 -4.1,-4.5 -6.1,-6.7 -0.8,-0.9 -0.7,-2.1 0.1,-3 l 3.9,-3.9 c 1.6,-1.6 3.2,-3.2 4.8,-4.7 l 3.1,-3.1 c 0.5,-0.5 1,-0.6 1.6,-0.3 0.6,0.3 0.9,0.8 0.9,1.4 v 7.7 c 0,0.8 0.3,1.2 1.1,1.3 2.6,0.5 5.1,1.1 7.5,2.1 1,0.4 2.1,0.9 3,1.5 1.6,0.9 2.3,2.3 2.4,4.2 v 13.9 c 0,1.4 -0.5,2.6 -1.5,3.6 -1.3,1.3 -2.8,2.2 -4.4,3 -2.7,1.4 -5.7,2.2 -8.6,2.9 -2.8,0.6 -5.5,1 -8.4,1.3 -2,0.2 -3.9,0.3 -5.9,0.4 -1.4,0.1 -2.9,0.1 -4.3,0.1 -1.9,0 -3.8,-0.2 -5.7,-0.3 -1.7,-0.1 -3.5,-0.3 -5.2,-0.5 -4.6,-0.6 -9,-1.5 -13.3,-3.3 -2,-0.9 -3.9,-2 -5.5,-3.5 -1,-1 -1.5,-2.1 -1.5,-3.5 v -14 c 0,-1.7 0.7,-3.1 2.2,-4 1.7,-1.1 3.5,-1.8 5.4,-2.4 1.9,-0.5 3.7,-0.9 5.6,-1.4 0.8,-0.2 1.2,-0.6 1.2,-1.4 v -7.5 c 0,-0.5 0.1,-0.9 0.5,-1.3 0.6,-0.5 1.4,-0.5 1.9,0.1 2.5,2.4 4.9,4.9 7.4,7.3 1.4,1.4 2.9,2.8 4.3,4.3 0.7,0.6 1,1.4 0.8,2.3 -0.1,0.3 -0.3,0.7 -0.5,0.9 -2,2.2 -4.1,4.5 -6.2,6.7 -0.1,0.1 -0.2,0.2 -0.3,0.1 -0.9,-0.1 -1.9,-0.2 -2.8,-0.4 -0.2,-0.1 -0.2,-0.2 -0.3,-0.2 z"
     fill="#ffffff"
     id="path2" />
  <path
     d="M 130.2,146 H 75.3 c -3.3,0 -6,-2.7 -6,-6 v -12 c 0,-1.1 0.9,-2 2,-2 1.1,0 2,0.9 2,2 v 12 c 0,1.1 0.9,2 2,2 h 54.9 c 1.1,0 2,-0.9 2,-2 V 64.6 c 0,-1.1 -0.9,-2 -2,-2 H 118 c -1.1,0 -2,-0.9 -2,-2 0,-1.1 0.9,-2 2,-2 h 12.2 c 3.3,0 6,2.7 6,6 V 140 c 0,3.3 -2.7,6 -6,6 z"
     fill="#ffffff"
     id="path4" />
  <path
     d="m 95.7,39.6 h 12.2 c 1.1,0 2,0.9 2,2 v 48.3 h 4 V 41.6 c 0,-3.3 -2.7,-6 -6,-6 H 95.7 c -1.1,0 -2,0.9 -2,2 0,1.1 0.9,2 2,2 z M 84.7,14 h -36 c -2.8,0 -6.3,1.5 -8.2,3.5 L 27.1,31.8 c -1.8,2 -3.3,5.6 -3.3,8.3 v 55.3 c 0,3.3 2.7,6 6,6 h 17.7 c 1.1,0 2,-0.9 2,-2 0,-1.1 -0.9,-2 -2,-2 H 29.8 c -1.1,0 -2,-0.9 -2,-2 V 40.1 c 0,-1.1 0.4,-2.6 1.1,-3.8 h 13.2 c 2.2,0 4,-1.8 4,-4 V 18.6 C 47,18.2 48,18 48.8,18 h 36 c 1.1,0 2,0.9 2,2 v 58.6 c 0,1.1 0.9,2 2,2 1.1,0 2,-0.9 2,-2 V 20 C 90.7,16.7 88,14 84.7,14 Z"
     fill="#ffffff"
     id="path6" />
</svg>
